<svg xmlns="http://www.w3.org/2000/svg" viewBox="0 0 40 40"><defs><style>.cls-1{fill:var(--main-color);}</style></defs><g id="Layer_2" data-name="Layer 2"><g id="Layer_1-2" data-name="Layer 1"><path class="cls-1" d="M12.47,34.94a3.51,3.51,0,0,1-5.1.65,3.5,3.5,0,0,1-1.2-1.67,3,3,0,0,1,.4-2.48l1.62,1.29a1.14,1.14,0,0,0,.27,1.55c.76.61,1.65.26,2.38-.64s.8-1.89.09-2.47a1.18,1.18,0,0,0-1.65.1L7.65,30A3.07,3.07,0,0,1,9.59,29a3.19,3.19,0,0,1,2.38.83A3.45,3.45,0,0,1,12.47,34.94Z"/><path class="cls-1" d="M1.64,28.34,0,22.5,1.69,22,2.24,24l5.12-1.43.55,2L2.8,26l.54,1.92Z"/><path class="cls-1" d="M3.47,17.6A3.49,3.49,0,0,1,1.23,13a3.52,3.52,0,0,1,1.2-1.66,3,3,0,0,1,2.49-.42l-.71,1.94a1.16,1.16,0,0,0-1.39.75c-.34.92.28,1.65,1.37,2s2.06.17,2.37-.7a1.16,1.16,0,0,0-.62-1.52l.72-2A3.1,3.1,0,0,1,8.18,13a3.15,3.15,0,0,1,0,2.52A3.49,3.49,0,0,1,3.47,17.6Z"/><path class="cls-1" d="M6.3,5.28l5-3.42,1,1.45L10.65,4.45l3,4.37L11.93,10l-3-4.37L7.29,6.73Z"/><path class="cls-1" d="M17.09,3.59A3.49,3.49,0,0,1,20.76,0a3.53,3.53,0,0,1,2,.6,2.92,2.92,0,0,1,1.19,2.22l-2.06,0A1.16,1.16,0,0,0,20.69,1.7c-1,0-1.48.79-1.51,1.94s.51,2,1.42,2a1.18,1.18,0,0,0,1.26-1.08L24,4.64a3.07,3.07,0,0,1-1,1.92,3.19,3.19,0,0,1-2.41.78A3.46,3.46,0,0,1,17.09,3.59Z"/><path class="cls-1" d="M29.7,2.31,34.56,6,33.5,7.38,31.88,6.16l-3.21,4.22L27,9.14l3.2-4.23-1.59-1.2Z"/><path class="cls-1" d="M34.77,12a3.62,3.62,0,0,1,4.64,4.38,3,3,0,0,1-1.74,1.83l-.6-2a1.16,1.16,0,0,0,.65-1.44c-.29-.93-1.22-1.14-2.33-.8s-1.74,1.11-1.47,2a1.18,1.18,0,0,0,1.42.84l.62,2a3.08,3.08,0,0,1-2.15-.3,3.22,3.22,0,0,1-1.5-2A3.46,3.46,0,0,1,34.77,12Z"/><path class="cls-1" d="M40,23.49l-1.94,5.76-1.67-.56L37,26.77l-5-1.68.65-1.95,5,1.68.64-1.89Z"/><path class="cls-1" d="M32.43,31.34a3.48,3.48,0,0,1-.75,5.07,3.53,3.53,0,0,1-1.93.71,3,3,0,0,1-2.29-1l1.67-1.21a1.17,1.17,0,0,0,1.58.16c.8-.57.7-1.52,0-2.46s-1.61-1.28-2.36-.75A1.17,1.17,0,0,0,28,33.42l-1.69,1.22a3,3,0,0,1-.4-2.12,3.22,3.22,0,0,1,1.44-2.07A3.48,3.48,0,0,1,32.43,31.34Z"/><path class="cls-1" d="M23,40l-6.09-.1,0-1.75,2,0,.08-5.29,2.07,0L21,38.21l2,0Z"/></g></g></svg>